<svg xmlns="http://www.w3.org/2000/svg" viewBox="0 0 250 110"><title>sparc-alt-logo-black</title><g id="alt-logo-black"><path d="M97.4594,41.4568V34.6459c0-2.8148-1.633-4.56-4.447-4.56H88.96V46.0163h4.0527C95.8264,46.0163,97.4594,44.3275,97.4594,41.4568Z"/><path d="M161.38,40.5v-5.854c0-2.8148-1.632-4.56-4.4469-4.56H152.6V45.0027h4.3335C159.7484,45.0027,161.38,43.3139,161.38,40.5Z"/><path d="M195,0H55a55,55,0,0,0,0,110H195A55,55,0,0,0,195,0ZM179.6209,34.42c0-6.2482,3.8835-10.1884,10.1884-10.1884,6.2483,0,10.1317,3.94,10.1317,10.1884v3.7151h-5.7973V34.42c0-2.8707-1.5762-4.6153-4.3344-4.6153-2.8149,0-4.3911,1.7446-4.3911,4.6153V55.417c0,2.8707,1.5762,4.6153,4.3911,4.6153,2.7582,0,4.3344-1.7446,4.3344-4.6153V51.701h5.7973v3.716c0,6.2482-3.8834,10.1883-10.1317,10.1883-6.3049,0-10.1884-3.94-10.1884-10.1883Zm-32.8191-9.7941H156.99c6.2483,0,10.1884,3.94,10.1884,10.1884v5.5164A9.8463,9.8463,0,0,1,162.7316,49c1.633,4.9537,3.94,11.7088,5.4039,16.2116h-5.9106l-4.8971-14.7479H152.6V65.2111h-5.7982Zm-63.64,0h9.9066c6.2483,0,10.1885,3.94,10.1885,10.1884v6.4733c0,6.3049-3.94,10.1884-10.1885,10.1884H88.96V65.2111H83.1616ZM50.0608,51.701h5.7981v3.716c0,2.8707,1.5762,4.6153,4.39,4.6153,2.7582,0,4.3345-1.7446,4.3345-4.6153A6.5488,6.5488,0,0,0,62.22,50.6316l-7.8812-7.3735c-3.1516-2.9274-4.2777-5.4039-4.2777-9.0065,0-6.08,3.7718-10.02,9.9633-10.02,6.1357,0,9.9075,3.94,9.9075,10.1884v3.7151H64.1335V34.42c0-2.8707-1.52-4.6153-4.1094-4.6153-2.6457,0-4.1652,1.7446-4.1652,4.6153a5.8149,5.8149,0,0,0,2.1388,4.447l7.712,7.2618c2.4765,2.3639,4.672,4.9538,4.672,9.2882,0,6.2482-3.8843,10.1883-10.1326,10.1883-6.304,0-10.1883-3.94-10.1883-10.1883ZM198.7127,76.2387,146.8746,77.515,138.75,96.2021a2.639,2.639,0,0,1-5-.4965l-.01-.0485-10.725-51.2695-6.97,31.0622-.0229.1015a2.5714,2.5714,0,0,1-2.5512,2.0067l-62.1739-1.06a1.32,1.32,0,0,1-.011-2.6388l59.9715-1.5228,8.4316-45.2609a3.5067,3.5067,0,0,1,6.8954.0045l.0039.0267,10.7791,59.0381,5.338-12.2774.0254-.0585a2.5459,2.5459,0,0,1,2.3948-1.5282L198.7127,73.6a1.32,1.32,0,0,1,0,2.6388Z"/></g></svg>