
<svg width="24px" height="24px" viewBox="0 0 24 24" version="1.1" xmlns="http://www.w3.org/2000/svg" xmlns:xlink="http://www.w3.org/1999/xlink">
    <g id="Page-1" stroke="none" stroke-width="1" fill="none" fill-rule="evenodd">
        <g id="closeFullScreen" fill-rule="nonzero">
            <circle id="Oval" fill="#8300BF" cx="12" cy="12" r="12"></circle>
            <path d="M19.75,13.25 L19.75,14.75 L16.25,14.75 L16.25,18.25 L14.75,18.25 L14.75,13.25 L19.75,13.25 Z M9.25,13.25 L9.25,18.25 L7.75,18.25 L7.75,14.75 L4.25,14.75 L4.25,13.25 L9.25,13.25 Z M9.25,5.25 L9.25,10.25 L4.25,10.25 L4.25,8.75 L7.75,8.751 L7.75,5.25 L9.25,5.25 Z M16.25,5.25 L16.25,8.751 L19.75,8.75 L19.75,10.25 L14.75,10.25 L14.75,5.25 L16.25,5.25 Z" id="Combined-Shape" fill="#FFFFFF"></path>
        </g>
    </g>
</svg>
