
<svg width="24px" height="24px" viewBox="0 0 24 24" version="1.1" xmlns="http://www.w3.org/2000/svg" xmlns:xlink="http://www.w3.org/1999/xlink">
    <g id="Page-1" stroke="none" stroke-width="1" fill="none" fill-rule="evenodd">
        <g id="fullScreen" fill-rule="nonzero">
            <circle id="Oval" fill="#8300BF" cx="12" cy="12" r="12"></circle>
            <g id="Group" stroke-linecap="square" transform="translate(4.250000, 5.250000)" fill="#FFFFFF">
                <path d="M15.501238,8 L15.501238,13 L9.1999994,13 L9.1999994,11.5 L14.0022374,11.501 L14.001238,8 L15.501238,8 Z M1.5,8 L1.5,11.5 L6.30123862,11.5 L6.30123862,13 L-1.02722535e-13,13 L-1.03334858e-13,8 L1.5,8 Z M6.30123862,0 L6.30123862,1.5 L1.5,1.5 L1.5,5 L-1.02140518e-13,5 L-1.02140518e-13,0 L6.30123862,0 Z M15.501238,0 L15.501238,5 L14.001238,5 L14.0022374,1.499 L9.1999994,1.5 L9.1999994,0 L15.501238,0 Z" id="Combined-Shape"></path>
            </g>
        </g>
    </g>
</svg>
