
<svg width="24px" height="24px" viewBox="0 0 24 24" version="1.1" xmlns="http://www.w3.org/2000/svg" xmlns:xlink="http://www.w3.org/1999/xlink">
    <g id="Page-1" stroke="none" stroke-width="1" fill="none" fill-rule="evenodd">
        <g id="permalink" fill-rule="nonzero">
            <circle id="Oval" fill="#8300BF" cx="12" cy="12" r="12"></circle>
            <path d="M8.6109127,9.52512627 L10.0251263,10.9393398 L7.55025253,13.4142136 C6.57394178,14.3905243 6.57394178,15.9734367 7.55025253,16.9497475 C8.48751083,17.8870058 9.98381327,17.9244961 10.9657951,17.0622185 L11.0857864,16.9497475 L13.5606602,14.4748737 L14.9748737,15.8890873 L12.5,18.363961 C10.7426407,20.1213204 7.8933983,20.1213204 6.13603897,18.363961 C4.37867964,16.6066017 4.37867964,13.7573593 6.13603897,12 L8.6109127,9.52512627 Z M14.6213203,8.46446609 L16.0355339,9.87867966 L10.3786797,15.5355339 L8.96446609,14.1213203 L14.6213203,8.46446609 Z M18.863961,5.63603897 C20.6213204,7.3933983 20.6213203,10.2426407 18.863961,12 L16.3890873,14.4748737 L14.9748737,13.0606602 L17.4497475,10.5857864 C18.4260582,9.60947571 18.4260582,8.02656328 17.4497475,7.05025253 C16.5124892,6.11299423 15.0161867,6.07550388 14.0342049,6.93778155 L13.9142136,7.05025253 L11.4393398,9.52512627 L10.0251263,8.1109127 L12.5,5.63603897 C14.2573593,3.87867966 17.1066017,3.87867964 18.863961,5.63603897 Z" id="Combined-Shape" fill="#FFFFFF"></path>
        </g>
    </g>
</svg>
