
<svg width="24px" height="24px" viewBox="0 0 24 24" version="1.1" xmlns="http://www.w3.org/2000/svg" xmlns:xlink="http://www.w3.org/1999/xlink">
    <g id="Page-1" stroke="none" stroke-width="1" fill="none" fill-rule="evenodd">
        <g id="resetZoom">
            <circle id="Oval-Copy-2" fill="#8300BF" fill-rule="nonzero" cx="12" cy="12" r="12"></circle>
            <g id="Group-12" transform="translate(4.000000, 3.000000)" fill="#FFFFFF" fill-rule="nonzero">
                <path d="M6.5,0 C10.0898509,0 13,2.91014913 13,6.5 C13,7.93415657 12.5355323,9.25983089 11.7488141,10.3348056 L15.9975469,14.5833333 L14.5833333,15.9975469 L10.3348056,11.7488141 C9.25983089,12.5355323 7.93415657,13 6.5,13 C2.91014913,13 0,10.0898509 0,6.5 C0,2.91014913 2.91014913,0 6.5,0 Z M6.5,2 C4.01471863,2 2,4.01471863 2,6.5 C2,8.98528137 4.01471863,11 6.5,11 C8.98528137,11 11,8.98528137 11,6.5 C11,4.01471863 8.98528137,2 6.5,2 Z M7.5,6 L7.5,5 L7.82364795,5.00046836 C7.46349545,4.68200538 6.99701862,4.5 6.5,4.5 C5.3954305,4.5 4.5,5.3954305 4.5,6.5 C4.5,7.6045695 5.3954305,8.5 6.5,8.5 C7.15194141,8.5 7.75049906,8.18643517 8.12449278,7.66695028 C8.25761621,7.48203913 8.35829031,7.27586806 8.42165708,7.05661951 C8.42699587,7.03814732 8.43206673,7.01959428 8.43686814,7.00096426 L9.45834282,7.00059343 C9.43937583,7.11336846 9.41399664,7.22473562 9.38233819,7.33427361 C9.28703313,7.66402843 9.13575933,7.9738229 8.93605335,8.25121858 C8.3760909,9.02901784 7.47704243,9.5 6.5,9.5 C4.84314576,9.5 3.5,8.15685424 3.5,6.5 C3.5,4.84314576 4.84314576,3.5 6.5,3.5 C7.25209197,3.5 7.95913393,3.77892151 8.50126236,4.26486488 L8.5,4 L9.5,4 L9.5,6 L7.5,6 Z" id="Combined-Shape"></path>
            </g>
            <g id="Group-4" transform="translate(7.500000, 6.500000)"></g>
        </g>
    </g>
</svg>
