
<svg width="24px" height="24px" viewBox="0 0 24 24" version="1.1" xmlns="http://www.w3.org/2000/svg" xmlns:xlink="http://www.w3.org/1999/xlink">
    <g id="Page-1" stroke="none" stroke-width="1" fill="none" fill-rule="evenodd">
        <g id="tooltips" fill-rule="nonzero">
            <circle id="Oval-Copy" fill="#8300BF" cx="12" cy="12" r="12"></circle>
            <path d="M6,5 L18,5 C19.1045695,5 20,5.8954305 20,7 L20,15.5714286 C20,16.6759981 19.1045695,17.5714286 18,17.5714286 L15.4003471,17.5714286 L15.4003471,17.5714286 L12.8157442,20.271248 C12.4338253,20.6701921 11.8008107,20.6839938 11.4018666,20.3020749 C11.3997428,20.3000417 11.3976279,20.2979991 11.3955221,20.2959473 L8.59934577,17.5714286 L8.59934577,17.5714286 L6,17.5714286 C4.8954305,17.5714286 4,16.6759981 4,15.5714286 L4,7 C4,5.8954305 4.8954305,5 6,5 Z" id="Rectangle" fill="#FFFFFF"></path>
        </g>
    </g>
</svg>
