
<svg width="24px" height="24px" viewBox="0 0 24 24" version="1.1" xmlns="http://www.w3.org/2000/svg" xmlns:xlink="http://www.w3.org/1999/xlink">
    <g id="Page-1" stroke="none" stroke-width="1" fill="none" fill-rule="evenodd">
        <g id="tooltips" fill-rule="nonzero">
            <circle id="Oval-Copy" fill="#8300BF" cx="12" cy="12" r="12"></circle>
            <path d="M18,5 C19.1045695,5 20,5.8954305 20,7 L20,15.5714286 C20,16.6759981 19.1045695,17.5714286 18,17.5714286 L15.4003471,17.5714286 L12.8157442,20.271248 C12.4338253,20.6701921 11.8008107,20.6839938 11.4018666,20.3020749 C11.3997428,20.3000417 11.3976279,20.2979991 11.3955221,20.2959473 L8.59934577,17.5714286 L6,17.5714286 C4.8954305,17.5714286 4,16.6759981 4,15.5714286 L4,7 C4,5.8954305 4.8954305,5 6,5 L18,5 Z M11.604,15.536 L11.092,15.536 C10.212,15.536 10.212,15.536 10.1386667,15.9662222 L10.132,16.048 L10.132,17.52 C10.132,17.9893333 10.132,17.9893333 10.9386667,18.0284444 L11.092,18.032 L11.604,18.032 C12.484,18.032 12.484,18.032 12.5573333,17.6017778 L12.564,17.52 L12.564,16.048 C12.564,15.5786667 12.564,15.5786667 11.7573333,15.5395556 L11.604,15.536 Z M11.892,6.672 C11.428,6.672 11.428,6.672 10.9,6.744 C10.372,6.816 10.372,6.816 9.916,6.968 C9.46,7.12 9.46,7.12 9.172,7.368 C8.884,7.616 8.884,7.616 8.884,7.968 C8.884,8.128 8.884,8.128 9.044,8.448 C9.204,8.768 9.204,8.768 9.436,9.024 C9.668,9.28 9.668,9.28 9.892,9.28 C10.004,9.28 10.004,9.28 10.252,9.152 C10.5,9.024 10.5,9.024 10.86,8.904 C11.22,8.784 11.22,8.784 11.684,8.784 C12.292,8.784 12.292,8.784 12.58,9.024 C12.868,9.264 12.868,9.264 12.868,9.68 C12.868,10.08 12.868,10.08 12.428,10.552 C11.988,11.024 11.988,11.024 11.476,11.616 C11.06,12.112 11.06,12.112 10.724,12.696 C10.388,13.28 10.388,13.28 10.388,13.984 C10.388,14.24 10.388,14.24 10.572,14.344 C10.7192,14.4272 10.7192,14.4272 11.01488,14.44384 L11.172,14.448 L11.54,14.448 C11.94,14.448 11.94,14.448 12.14,14.36 C12.34,14.272 12.34,14.272 12.388,14.016 C12.5,13.472 12.5,13.472 12.932,13.064 C13.364,12.656 13.364,12.656 13.86,12.208 C14.228,11.872 14.228,11.872 14.572,11.504 C14.916,11.136 14.916,11.136 15.14,10.648 C15.364,10.16 15.364,10.16 15.364,9.52 C15.364,8.64 15.364,8.64 14.94,8 C14.516,7.36 14.516,7.36 13.74,7.016 C12.964,6.672 12.964,6.672 11.892,6.672 Z" id="Combined-Shape" fill="#FFFFFF"></path>
        </g>
    </g>
</svg>
