
<svg width="24px" height="24px" viewBox="0 0 24 24" version="1.1" xmlns="http://www.w3.org/2000/svg" xmlns:xlink="http://www.w3.org/1999/xlink">
    <g id="Page-1" stroke="none" stroke-width="1" fill="none" fill-rule="evenodd">
        <g id="undock" fill-rule="nonzero">
            <circle id="Oval" fill="#8300BF" cx="12" cy="12" r="12"></circle>
            <path d="M11.7038368,12.3180195 L11.7037492,12.4392233 L11.8251572,12.4393398 L11.8247492,13.7312233 L11.885817,13.7928932 L11.8247492,13.8532233 L11.8251572,18.4393398 L9.82515717,18.4393398 L9.82474922,15.8532233 L6.22896278,19.4497475 L4.81474922,18.0355339 L8.53174922,14.3172233 L5.70383683,14.3180195 L5.70383683,12.3180195 L11.7038368,12.3180195 Z M18.0355339,4.74422333 L19.4497475,6.15843689 L15.7327492,9.87522333 L18.5606602,9.87595152 L18.5606602,11.8759515 L12.5606602,11.8759515 L12.5597492,11.7542233 L12.4393398,11.7546312 L12.4387492,10.4612233 L12.3786797,10.4010776 L12.4387492,10.3392233 L12.4393398,5.75463118 L14.4393398,5.75463118 L14.4387492,8.33922333 L18.0355339,4.74422333 Z" id="Combined-Shape" fill="#FFFFFF"></path>
        </g>
    </g>
</svg>
