<svg xmlns="http://www.w3.org/2000/svg" xmlns:xlink="http://www.w3.org/1999/xlink" viewBox="0 0 250 110"><defs><linearGradient id="linear-gradient" y1="55" x2="250" y2="55" gradientUnits="userSpaceOnUse"><stop offset="0" stop-color="#0b00bf"/><stop offset="1" stop-color="#bc00fc"/></linearGradient></defs><title>sparc-alt-logo-primary</title><g id="alt-logo-primary"><path d="M55,110A55,55,0,0,1,55,0H195a55,55,0,0,1,0,110Z" style="fill:url(#linear-gradient)"/><path d="M198.7127,73.6l-53.5869-1.3194a2.5457,2.5457,0,0,0-2.3947,1.5282l-.0253.0585-5.3381,12.2774L126.5886,27.1065l-.0039-.0267a3.5068,3.5068,0,0,0-6.8955-.0045l-8.4315,45.2609L51.2862,73.859a1.32,1.32,0,0,0,.011,2.6388l62.1739,1.06a2.5714,2.5714,0,0,0,2.5513-2.0067l.0228-.1015,6.97-31.0621L133.74,95.6571l.01.0485a2.639,2.639,0,0,0,5,.4965l8.1248-18.6871,51.8381-1.2763a1.32,1.32,0,0,0,0-2.6388Z" style="fill:#fff"/><path d="M60.0241,24.2317c6.1357,0,9.9075,3.94,9.9075,10.1883v3.7151H64.1335V34.42c0-2.8707-1.52-4.6153-4.1094-4.6153-2.6457,0-4.1652,1.7446-4.1652,4.6153a5.8148,5.8148,0,0,0,2.1389,4.447L65.71,46.1288c2.4764,2.3639,4.672,4.9538,4.672,9.2882,0,6.2482-3.8843,10.1883-10.1325,10.1883-6.3041,0-10.1884-3.94-10.1884-10.1883V51.701h5.7981v3.716c0,2.8707,1.5762,4.6153,4.39,4.6153,2.7581,0,4.3344-1.7446,4.3344-4.6153A6.5489,6.5489,0,0,0,62.22,50.6316l-7.8812-7.3735c-3.1516-2.9274-4.2777-5.4039-4.2777-9.0064C50.0608,28.1718,53.8326,24.2317,60.0241,24.2317Z" style="fill:#fff"/><path d="M88.96,51.476V65.2111H83.1616V24.6259h9.9067c6.2482,0,10.1883,3.94,10.1883,10.1884v6.4733c0,6.3049-3.94,10.1884-10.1883,10.1884Zm4.0527-5.46c2.814,0,4.447-1.6888,4.447-4.5595V34.6459c0-2.8148-1.633-4.56-4.447-4.56H88.96V46.0163Z" style="fill:#fff"/><path d="M152.6,65.2111h-5.7982V24.6259H156.99c6.2482,0,10.1884,3.94,10.1884,10.1884v5.5164A9.8463,9.8463,0,0,1,162.7316,49c1.633,4.9538,3.94,11.7088,5.4039,16.2116h-5.9107l-4.897-14.7479H152.6Zm4.3335-20.2084c2.8149,0,4.447-1.6888,4.447-4.5028v-5.854c0-2.8148-1.6321-4.56-4.447-4.56H152.6V45.0027Z" style="fill:#fff"/><path d="M199.941,51.701v3.716c0,6.2482-3.8835,10.1883-10.1317,10.1883-6.3049,0-10.1884-3.94-10.1884-10.1883V34.42c0-6.2482,3.8835-10.1883,10.1884-10.1883,6.2482,0,10.1317,3.94,10.1317,10.1883v3.7151h-5.7973V34.42c0-2.8707-1.5762-4.6153-4.3344-4.6153-2.8149,0-4.3911,1.7446-4.3911,4.6153V55.417c0,2.8707,1.5762,4.6153,4.3911,4.6153,2.7582,0,4.3344-1.7446,4.3344-4.6153V51.701Z" style="fill:#fff"/><path d="M60.0241,24.2317c6.1357,0,9.9075,3.94,9.9075,10.1883v3.7151H64.1335V34.42c0-2.8707-1.52-4.6153-4.1094-4.6153-2.6457,0-4.1652,1.7446-4.1652,4.6153a5.8148,5.8148,0,0,0,2.1389,4.447L65.71,46.1288c2.4764,2.3639,4.672,4.9538,4.672,9.2882,0,6.2482-3.8843,10.1883-10.1325,10.1883-6.3041,0-10.1884-3.94-10.1884-10.1883V51.701h5.7981v3.716c0,2.8707,1.5762,4.6153,4.39,4.6153,2.7581,0,4.3344-1.7446,4.3344-4.6153A6.5489,6.5489,0,0,0,62.22,50.6316l-7.8812-7.3735c-3.1516-2.9274-4.2777-5.4039-4.2777-9.0064C50.0608,28.1718,53.8326,24.2317,60.0241,24.2317Z" style="fill:#fff"/><path d="M88.96,51.476V65.2111H83.1616V24.6259h9.9067c6.2482,0,10.1883,3.94,10.1883,10.1884v6.4733c0,6.3049-3.94,10.1884-10.1883,10.1884Zm4.0527-5.46c2.814,0,4.447-1.6888,4.447-4.5595V34.6459c0-2.8148-1.633-4.56-4.447-4.56H88.96V46.0163Z" style="fill:#fff"/><path d="M152.6,65.2111h-5.7982V24.6259H156.99c6.2482,0,10.1884,3.94,10.1884,10.1884v5.5164A9.8463,9.8463,0,0,1,162.7316,49c1.633,4.9538,3.94,11.7088,5.4039,16.2116h-5.9107l-4.897-14.7479H152.6Zm4.3335-20.2084c2.8149,0,4.447-1.6888,4.447-4.5028v-5.854c0-2.8148-1.6321-4.56-4.447-4.56H152.6V45.0027Z" style="fill:#fff"/><path d="M199.941,51.701v3.716c0,6.2482-3.8835,10.1883-10.1317,10.1883-6.3049,0-10.1884-3.94-10.1884-10.1883V34.42c0-6.2482,3.8835-10.1883,10.1884-10.1883,6.2482,0,10.1317,3.94,10.1317,10.1883v3.7151h-5.7973V34.42c0-2.8707-1.5762-4.6153-4.3344-4.6153-2.8149,0-4.3911,1.7446-4.3911,4.6153V55.417c0,2.8707,1.5762,4.6153,4.3911,4.6153,2.7582,0,4.3344-1.7446,4.3344-4.6153V51.701Z" style="fill:#fff"/></g></svg>